<svg width="94" height="94" viewBox="0 0 94 94" fill="none" xmlns="http://www.w3.org/2000/svg">
<path fill-rule="evenodd" clip-rule="evenodd" d="M12.0018 43.3543C12.0988 38.6926 15.984 34.9049 20.6457 35.0018C25.308 35.0988 29.0957 38.984 28.9982 43.6457C28.9012 48.3074 25.016 52.0951 20.3543 51.9982C15.6926 51.9012 11.9049 48.016 12.0018 43.3543ZM16.7611 43.4513C16.7611 45.4912 18.412 47.239 20.4519 47.239C22.4911 47.239 24.1421 45.6849 24.2397 43.5482C24.2397 41.5083 22.5888 39.7605 20.5489 39.7605C18.509 39.7605 16.7611 41.4114 16.7611 43.4513Z" fill="#039F4E"/>
<path d="M23 43.5003C23 44.3286 22.3285 45 21.5 45C20.6715 45 20 44.3286 20 43.5003C20 42.672 20.6715 42 21.5 42C22.3285 42 23 42.672 23 43.5003" fill="#039F4E"/>
<path fill-rule="evenodd" clip-rule="evenodd" d="M66.0018 43.3543C66.0988 38.6926 69.984 34.9049 74.6457 35.0018C79.3074 35.0988 83.0951 38.984 82.9982 43.6457C82.9012 48.3074 79.016 52.0951 74.3543 51.9982C69.6926 51.9012 65.9049 48.016 66.0018 43.3543ZM70.7604 43.4513C70.7604 45.4912 72.4113 47.239 74.4512 47.239C76.4912 47.239 78.1421 45.6849 78.239 43.5482C78.239 41.5083 76.5881 39.7605 74.5482 39.7605C72.5083 39.7605 70.7604 41.4114 70.7604 43.4513Z" fill="#039F4E"/>
<path d="M77 43.5003C77 44.3286 76.3285 45 75.5 45C74.6715 45 74 44.3286 74 43.5003C74 42.672 74.6715 42 75.5 42C76.3285 42 77 42.672 77 43.5003" fill="#039F4E"/>
<path d="M62 42V45H64C63.9233 44.4999 63.9233 44.1002 63.9233 43.6001C63.9233 43.1 64 42.5001 64 42.0001L62 42Z" fill="#039F4E"/>
<path fill-rule="evenodd" clip-rule="evenodd" d="M88 27.2219V41.9995L84.1906 42C83.143 37.4307 79.238 34.1254 74.4761 34.1254C69.7142 34.1254 65.8092 37.5275 64.7616 42H62V14.0007L82.0954 14L88 27.2219ZM78.2855 27.9997H83.1425L83.1425 27.9995C84.1902 27.9995 84.9522 26.9301 84.6665 25.8607L81.7143 17.6944C81.3336 16.7219 80.4766 16.1387 79.5239 16.1387H65.8094C64.9524 16.1387 64.2854 16.8195 64.2854 17.6944V21.7776C64.2854 22.4585 64.8567 23.0417 65.5237 23.0417H71.1426C71.6183 23.0417 72.1903 23.2363 72.571 23.6249L77.2378 27.6111C77.5235 27.9027 77.9048 27.9997 78.2855 27.9997Z" fill="#039F4E"/>
<path d="M88.9899 42.0001H85C85.0995 42.5002 85.0995 43.1 85.0995 43.6001C85.0995 44.1002 85.0995 44.4999 85 45H89.9871V43.1C90.0873 42.5001 89.5884 42 88.99 42L88.9899 42.0001Z" fill="#039F4E"/>
<path d="M2.85356 40.7619H2.36205C1.08249 40.7619 0 41.8095 0 43.0478C0 44.286 1.08256 45.2381 2.36205 45.2381H10.4321C10.334 44.7617 10.334 44.3811 10.334 43.9048C10.334 38.381 14.9593 33.9046 20.6673 33.9046C26.3752 33.9046 31.0007 38.3808 31.0007 43.9048C31.0007 44.6668 30.9025 45.3331 30.8036 46H62L61.9993 32H2.95258V40.7619L2.85356 40.7619Z" fill="#039F4E"/>
<path fill-rule="evenodd" clip-rule="evenodd" d="M5 15H22.9049L22.9043 30H5V15ZM5.9575 29.039H21.9467L21.946 15.9619H15.4357V20.1929H12.4678V15.9619H5.9575V29.039Z" fill="#039F4E"/>
<path d="M16.9735 28H18.9188V25.1431H20L17.9461 23L16 25.1431H16.9734L16.9735 28Z" fill="#039F4E"/>
<path fill-rule="evenodd" clip-rule="evenodd" d="M23 15H40.9043V30H23V15ZM23.9575 29.039H39.9467L39.946 15.9619H33.4357V20.1929H30.4678V15.9619H23.9575V29.039Z" fill="#039F4E"/>
<path d="M35.9729 28H37.9193V25.1431H39L36.9457 23L35 25.1431H35.9728L35.9729 28Z" fill="#039F4E"/>
<path fill-rule="evenodd" clip-rule="evenodd" d="M42 15H60V30H42V15ZM42.9623 29.039H59.0372L59.0363 15.9619H52.4912V20.1929H49.5074V15.9619H42.9623V29.039Z" fill="#039F4E"/>
<path d="M55.0807 28H57.0272V25.1431H58L56.0543 23L54 25.1431H55.0807L55.0807 28Z" fill="#039F4E"/>
<path fill-rule="evenodd" clip-rule="evenodd" d="M5 0H22.9049L22.9043 15H5V0ZM5.9575 14.1348H21.9467V0.961034H15.4364L15.4357 5.19202H12.4678V0.961034H5.9575V14.1348Z" fill="#039F4E"/>
<path d="M16.9735 12H18.9188V9.14307H20L17.9461 7L16 9.14307H16.9734L16.9735 12Z" fill="#039F4E"/>
<path fill-rule="evenodd" clip-rule="evenodd" d="M23 0H40.9043V15H23V0ZM23.9575 14.1348H39.9467L39.946 0.961034H33.4357V5.19202H30.4678V0.961034H23.9575V14.1348Z" fill="#039F4E"/>
<path d="M35.9729 12H37.9193V9.14307H39L36.9457 7L35 9.14307H35.9728L35.9729 12Z" fill="#039F4E"/>
<path fill-rule="evenodd" clip-rule="evenodd" d="M42 0H60V15H42V0ZM42.9623 14.1348H59.0372L59.0363 0.961034H52.4912V5.19202H49.5074V0.961034H42.9623V14.1348Z" fill="#039F4E"/>
<path d="M55.0807 12H57.0272V9.14307H58L56.0543 7L54 9.14307H55.0807L55.0807 12Z" fill="#039F4E"/>
<path d="M9.792 58.436V60.47H6.444V71H3.924V60.47H0.576V58.436H9.792ZM14.1507 62.576C14.4747 62.048 14.8947 61.634 15.4107 61.334C15.9387 61.034 16.5387 60.884 17.2107 60.884V63.53H16.5447C15.7527 63.53 15.1527 63.716 14.7447 64.088C14.3487 64.46 14.1507 65.108 14.1507 66.032V71H11.6307V61.028H14.1507V62.576ZM18.26 65.978C18.26 64.97 18.458 64.076 18.854 63.296C19.262 62.516 19.808 61.916 20.492 61.496C21.188 61.076 21.962 60.866 22.814 60.866C23.558 60.866 24.206 61.016 24.758 61.316C25.322 61.616 25.772 61.994 26.108 62.45V61.028H28.646V71H26.108V69.542C25.784 70.01 25.334 70.4 24.758 70.712C24.194 71.012 23.54 71.162 22.796 71.162C21.956 71.162 21.188 70.946 20.492 70.514C19.808 70.082 19.262 69.476 18.854 68.696C18.458 67.904 18.26 66.998 18.26 65.978ZM26.108 66.014C26.108 65.402 25.988 64.88 25.748 64.448C25.508 64.004 25.184 63.668 24.776 63.44C24.368 63.2 23.93 63.08 23.462 63.08C22.994 63.08 22.562 63.194 22.166 63.422C21.77 63.65 21.446 63.986 21.194 64.43C20.954 64.862 20.834 65.378 20.834 65.978C20.834 66.578 20.954 67.106 21.194 67.562C21.446 68.006 21.77 68.348 22.166 68.588C22.574 68.828 23.006 68.948 23.462 68.948C23.93 68.948 24.368 68.834 24.776 68.606C25.184 68.366 25.508 68.03 25.748 67.598C25.988 67.154 26.108 66.626 26.108 66.014ZM36.6332 60.884C37.8212 60.884 38.7812 61.262 39.5132 62.018C40.2452 62.762 40.6112 63.806 40.6112 65.15V71H38.0912V65.492C38.0912 64.7 37.8932 64.094 37.4972 63.674C37.1012 63.242 36.5612 63.026 35.8772 63.026C35.1812 63.026 34.6292 63.242 34.2212 63.674C33.8252 64.094 33.6272 64.7 33.6272 65.492V71H31.1072V61.028H33.6272V62.27C33.9632 61.838 34.3892 61.502 34.9052 61.262C35.4332 61.01 36.0092 60.884 36.6332 60.884ZM46.8236 71.162C46.0076 71.162 45.2756 71.018 44.6276 70.73C43.9796 70.43 43.4636 70.028 43.0796 69.524C42.7076 69.02 42.5036 68.462 42.4676 67.85H45.0056C45.0536 68.234 45.2396 68.552 45.5636 68.804C45.8996 69.056 46.3136 69.182 46.8056 69.182C47.2856 69.182 47.6576 69.086 47.9216 68.894C48.1976 68.702 48.3356 68.456 48.3356 68.156C48.3356 67.832 48.1676 67.592 47.8316 67.436C47.5076 67.268 46.9856 67.088 46.2656 66.896C45.5216 66.716 44.9096 66.53 44.4296 66.338C43.9616 66.146 43.5536 65.852 43.2056 65.456C42.8696 65.06 42.7016 64.526 42.7016 63.854C42.7016 63.302 42.8576 62.798 43.1696 62.342C43.4936 61.886 43.9496 61.526 44.5376 61.262C45.1376 60.998 45.8396 60.866 46.6436 60.866C47.8316 60.866 48.7796 61.166 49.4876 61.766C50.1956 62.354 50.5856 63.152 50.6576 64.16H48.2456C48.2096 63.764 48.0416 63.452 47.7416 63.224C47.4536 62.984 47.0636 62.864 46.5716 62.864C46.1156 62.864 45.7616 62.948 45.5096 63.116C45.2696 63.284 45.1496 63.518 45.1496 63.818C45.1496 64.154 45.3176 64.412 45.6536 64.592C45.9896 64.76 46.5116 64.934 47.2196 65.114C47.9396 65.294 48.5336 65.48 49.0016 65.672C49.4696 65.864 49.8716 66.164 50.2076 66.572C50.5556 66.968 50.7356 67.496 50.7476 68.156C50.7476 68.732 50.5856 69.248 50.2616 69.704C49.9496 70.16 49.4936 70.52 48.8936 70.784C48.3056 71.036 47.6156 71.162 46.8236 71.162ZM55.3362 62.468C55.6602 62.012 56.1042 61.634 56.6682 61.334C57.2442 61.022 57.8982 60.866 58.6302 60.866C59.4822 60.866 60.2502 61.076 60.9342 61.496C61.6302 61.916 62.1762 62.516 62.5722 63.296C62.9802 64.064 63.1842 64.958 63.1842 65.978C63.1842 66.998 62.9802 67.904 62.5722 68.696C62.1762 69.476 61.6302 70.082 60.9342 70.514C60.2502 70.946 59.4822 71.162 58.6302 71.162C57.8982 71.162 57.2502 71.012 56.6862 70.712C56.1342 70.412 55.6842 70.034 55.3362 69.578V75.752H52.8162V61.028H55.3362V62.468ZM60.6102 65.978C60.6102 65.378 60.4842 64.862 60.2322 64.43C59.9922 63.986 59.6682 63.65 59.2602 63.422C58.8642 63.194 58.4322 63.08 57.9642 63.08C57.5082 63.08 57.0762 63.2 56.6682 63.44C56.2722 63.668 55.9482 64.004 55.6962 64.448C55.4562 64.892 55.3362 65.414 55.3362 66.014C55.3362 66.614 55.4562 67.136 55.6962 67.58C55.9482 68.024 56.2722 68.366 56.6682 68.606C57.0762 68.834 57.5082 68.948 57.9642 68.948C58.4322 68.948 58.8642 68.828 59.2602 68.588C59.6682 68.348 59.9922 68.006 60.2322 67.562C60.4842 67.118 60.6102 66.59 60.6102 65.978ZM69.4434 71.162C68.4834 71.162 67.6194 70.952 66.8514 70.532C66.0834 70.1 65.4774 69.494 65.0334 68.714C64.6014 67.934 64.3854 67.034 64.3854 66.014C64.3854 64.994 64.6074 64.094 65.0514 63.314C65.5074 62.534 66.1254 61.934 66.9054 61.514C67.6854 61.082 68.5554 60.866 69.5154 60.866C70.4754 60.866 71.3454 61.082 72.1254 61.514C72.9054 61.934 73.5174 62.534 73.9614 63.314C74.4174 64.094 74.6454 64.994 74.6454 66.014C74.6454 67.034 74.4114 67.934 73.9434 68.714C73.4874 69.494 72.8634 70.1 72.0714 70.532C71.2914 70.952 70.4154 71.162 69.4434 71.162ZM69.4434 68.966C69.8994 68.966 70.3254 68.858 70.7214 68.642C71.1294 68.414 71.4534 68.078 71.6934 67.634C71.9334 67.19 72.0534 66.65 72.0534 66.014C72.0534 65.066 71.8014 64.34 71.2974 63.836C70.8054 63.32 70.1994 63.062 69.4794 63.062C68.7594 63.062 68.1534 63.32 67.6614 63.836C67.1814 64.34 66.9414 65.066 66.9414 66.014C66.9414 66.962 67.1754 67.694 67.6434 68.21C68.1234 68.714 68.7234 68.966 69.4434 68.966ZM79.014 62.576C79.338 62.048 79.758 61.634 80.274 61.334C80.802 61.034 81.402 60.884 82.074 60.884V63.53H81.408C80.616 63.53 80.016 63.716 79.608 64.088C79.212 64.46 79.014 65.108 79.014 66.032V71H76.494V61.028H79.014V62.576ZM86.7053 63.098V67.922C86.7053 68.258 86.7833 68.504 86.9393 68.66C87.1073 68.804 87.3833 68.876 87.7673 68.876H88.9373V71H87.3533C85.2293 71 84.1673 69.968 84.1673 67.904V63.098H82.9793V61.028H84.1673V58.562H86.7053V61.028H88.9373V63.098H86.7053ZM5.058 89.162C4.242 89.162 3.51 89.018 2.862 88.73C2.214 88.43 1.698 88.028 1.314 87.524C0.942 87.02 0.738 86.462 0.702 85.85H3.24C3.288 86.234 3.474 86.552 3.798 86.804C4.134 87.056 4.548 87.182 5.04 87.182C5.52 87.182 5.892 87.086 6.156 86.894C6.432 86.702 6.57 86.456 6.57 86.156C6.57 85.832 6.402 85.592 6.066 85.436C5.742 85.268 5.22 85.088 4.5 84.896C3.756 84.716 3.144 84.53 2.664 84.338C2.196 84.146 1.788 83.852 1.44 83.456C1.104 83.06 0.936 82.526 0.936 81.854C0.936 81.302 1.092 80.798 1.404 80.342C1.728 79.886 2.184 79.526 2.772 79.262C3.372 78.998 4.074 78.866 4.878 78.866C6.066 78.866 7.014 79.166 7.722 79.766C8.43 80.354 8.82 81.152 8.892 82.16H6.48C6.444 81.764 6.276 81.452 5.976 81.224C5.688 80.984 5.298 80.864 4.806 80.864C4.35 80.864 3.996 80.948 3.744 81.116C3.504 81.284 3.384 81.518 3.384 81.818C3.384 82.154 3.552 82.412 3.888 82.592C4.224 82.76 4.746 82.934 5.454 83.114C6.174 83.294 6.768 83.48 7.236 83.672C7.704 83.864 8.106 84.164 8.442 84.572C8.79 84.968 8.97 85.496 8.982 86.156C8.982 86.732 8.82 87.248 8.496 87.704C8.184 88.16 7.728 88.52 7.128 88.784C6.54 89.036 5.85 89.162 5.058 89.162ZM15.4786 89.162C14.5186 89.162 13.6546 88.952 12.8866 88.532C12.1186 88.1 11.5126 87.494 11.0686 86.714C10.6366 85.934 10.4206 85.034 10.4206 84.014C10.4206 82.994 10.6426 82.094 11.0866 81.314C11.5426 80.534 12.1606 79.934 12.9406 79.514C13.7206 79.082 14.5906 78.866 15.5506 78.866C16.5106 78.866 17.3806 79.082 18.1606 79.514C18.9406 79.934 19.5526 80.534 19.9966 81.314C20.4526 82.094 20.6806 82.994 20.6806 84.014C20.6806 85.034 20.4466 85.934 19.9786 86.714C19.5226 87.494 18.8986 88.1 18.1066 88.532C17.3266 88.952 16.4506 89.162 15.4786 89.162ZM15.4786 86.966C15.9346 86.966 16.3606 86.858 16.7566 86.642C17.1646 86.414 17.4886 86.078 17.7286 85.634C17.9686 85.19 18.0886 84.65 18.0886 84.014C18.0886 83.066 17.8366 82.34 17.3326 81.836C16.8406 81.32 16.2346 81.062 15.5146 81.062C14.7946 81.062 14.1886 81.32 13.6966 81.836C13.2166 82.34 12.9766 83.066 12.9766 84.014C12.9766 84.962 13.2106 85.694 13.6786 86.21C14.1586 86.714 14.7586 86.966 15.4786 86.966ZM21.8811 84.014C21.8811 82.982 22.0911 82.082 22.5111 81.314C22.9311 80.534 23.5131 79.934 24.2571 79.514C25.0011 79.082 25.8531 78.866 26.8131 78.866C28.0491 78.866 29.0691 79.178 29.8731 79.802C30.6891 80.414 31.2351 81.278 31.5111 82.394H28.7931C28.6491 81.962 28.4031 81.626 28.0551 81.386C27.7191 81.134 27.2991 81.008 26.7951 81.008C26.0751 81.008 25.5051 81.272 25.0851 81.8C24.6651 82.316 24.4551 83.054 24.4551 84.014C24.4551 84.962 24.6651 85.7 25.0851 86.228C25.5051 86.744 26.0751 87.002 26.7951 87.002C27.8151 87.002 28.4811 86.546 28.7931 85.634H31.5111C31.2351 86.714 30.6891 87.572 29.8731 88.208C29.0571 88.844 28.0371 89.162 26.8131 89.162C25.8531 89.162 25.0011 88.952 24.2571 88.532C23.5131 88.1 22.9311 87.5 22.5111 86.732C22.0911 85.952 21.8811 85.046 21.8811 84.014ZM34.6352 77.84C34.1912 77.84 33.8192 77.702 33.5192 77.426C33.2312 77.138 33.0872 76.784 33.0872 76.364C33.0872 75.944 33.2312 75.596 33.5192 75.32C33.8192 75.032 34.1912 74.888 34.6352 74.888C35.0792 74.888 35.4452 75.032 35.7332 75.32C36.0332 75.596 36.1832 75.944 36.1832 76.364C36.1832 76.784 36.0332 77.138 35.7332 77.426C35.4452 77.702 35.0792 77.84 34.6352 77.84ZM35.8772 79.028V89H33.3572V79.028H35.8772ZM47.637 83.798C47.637 84.158 47.613 84.482 47.565 84.77H40.275C40.335 85.49 40.587 86.054 41.031 86.462C41.475 86.87 42.021 87.074 42.669 87.074C43.605 87.074 44.271 86.672 44.667 85.868H47.385C47.097 86.828 46.545 87.62 45.729 88.244C44.913 88.856 43.911 89.162 42.723 89.162C41.763 89.162 40.899 88.952 40.131 88.532C39.375 88.1 38.781 87.494 38.349 86.714C37.929 85.934 37.719 85.034 37.719 84.014C37.719 82.982 37.929 82.076 38.349 81.296C38.769 80.516 39.357 79.916 40.113 79.496C40.869 79.076 41.739 78.866 42.723 78.866C43.671 78.866 44.517 79.07 45.261 79.478C46.017 79.886 46.599 80.468 47.007 81.224C47.427 81.968 47.637 82.826 47.637 83.798ZM45.027 83.078C45.015 82.43 44.781 81.914 44.325 81.53C43.869 81.134 43.311 80.936 42.651 80.936C42.027 80.936 41.499 81.128 41.067 81.512C40.647 81.884 40.389 82.406 40.293 83.078H45.027ZM52.4104 81.098V85.922C52.4104 86.258 52.4884 86.504 52.6444 86.66C52.8124 86.804 53.0884 86.876 53.4724 86.876H54.6424V89H53.0584C50.9344 89 49.8724 87.968 49.8724 85.904V81.098H48.6844V79.028H49.8724V76.562H52.4104V79.028H54.6424V81.098H52.4104ZM65.9949 79.028L59.8209 93.716H57.1389L59.2989 88.748L55.3029 79.028H58.1289L60.7029 85.994L63.3129 79.028H65.9949Z" fill="black"/>
</svg>
